<svg width="60" height="47" viewBox="0 0 60 47" fill="none" xmlns="http://www.w3.org/2000/svg">
<path fill-rule="evenodd" clip-rule="evenodd" d="M0.5 24.7738C3.44772 23.106 6.39545 21.477 9.34317 19.848C12.0582 16.0857 14.7344 12.3623 17.4494 8.60007L18.3803 8.75521C25.0127 7.165 31.6062 5.53599 38.2386 3.94577L38.6653 4.9542C39.8288 7.63043 41.0312 10.3454 42.1948 13.0217L49.7192 14.3792L50.1847 14.9997L49.5253 19.3438L58.64 21.3218L50.1071 1.61862L49.9132 1.11441L50.4562 0.998047L59.5708 22.0588L40.0228 42.6152C32.8086 40.482 25.5944 38.3876 18.3803 36.2544L18.4966 45.369H17.9536L17.8373 36.0992C12.2909 34.4702 6.74452 32.8412 1.19815 31.2122L3.71923 27.6827L0.5 24.7738ZM11.5928 18.568L17.4882 15.2712L17.4106 10.4618L11.5928 18.568ZM18.0312 14.9609L25.0126 11.0436L17.9536 9.80243L18.0312 14.9609ZM26.5253 10.1903L35.7175 5.07056L19.6214 8.98793L26.5253 10.1903ZM42.699 14.1852L44.4444 18.219L48.3617 19.0722L48.9435 15.31L42.699 14.1852ZM44.7159 18.8007C45.6467 20.8952 46.5388 22.9896 47.4697 25.0453L48.3229 19.5765L44.7159 18.8007ZM48.2842 26.9458C41.6518 27.9542 35.0194 28.9626 28.387 29.9711L39.5186 41.2965L39.5961 41.3353L58.2133 21.7485L49.3702 19.8092L48.2842 26.9458ZM27.7664 30.0874C24.586 30.5529 21.4444 31.0571 18.2639 31.5225L18.3027 35.0908L38.5101 41.025L27.7664 30.0874ZM17.7209 31.6389C15.2386 32.0267 12.7951 32.3758 10.3128 32.7636L17.7597 34.9357L17.7209 31.6389ZM8.60624 32.2594L4.45615 28.4584L2.90472 30.5916L8.60624 32.2594ZM3.99073 27.2561L8.60624 20.8564L1.39208 24.8901L3.99073 27.2561ZM27.3786 10.3454L41.5354 12.8665L37.8895 4.52756L37.6568 4.56634L27.3786 10.3454ZM44.0565 18.6844L21.7159 13.8362L28.0379 29.5444L47.5084 26.5579L44.0565 18.6844ZM42.0784 14.0689L25.8659 11.1987L22.0261 13.3319L43.8238 18.0638L42.0784 14.0689ZM18.0312 15.5815L18.2251 31.0183L27.4562 29.622C25.3229 24.3859 23.2285 19.111 21.1341 13.8749L18.0312 15.5815ZM10.8558 19.5765L4.80523 27.993L9.49831 32.337L17.7209 31.0959L17.527 15.8918L10.8558 19.5765Z" fill="#2F2A95"/>
<path d="M7.98553 9.0654C7.63646 9.0654 7.32617 9.3369 7.32617 9.72476C7.32617 10.0738 7.59767 10.3841 7.98553 10.3841C8.3346 10.3841 8.64489 10.1126 8.64489 9.72476C8.64489 9.37569 8.37339 9.0654 7.98553 9.0654ZM18.225 3.20874C17.682 3.20874 17.2553 3.63539 17.2553 4.17839C17.2553 4.72139 17.682 5.14803 18.225 5.14803C18.768 5.14803 19.1946 4.72139 19.1946 4.17839C19.1946 3.63539 18.768 3.20874 18.225 3.20874ZM43.7849 41.2576C44.1339 41.2576 44.4442 41.5292 44.4442 41.917C44.4442 42.2661 44.1727 42.5764 43.7849 42.5764C43.4358 42.5764 43.1255 42.3049 43.1255 41.917C43.1643 41.5292 43.4358 41.2576 43.7849 41.2576ZM8.72246 36.9912C8.17946 36.9912 7.75281 37.4179 7.75281 37.9608C7.75281 38.5039 8.17946 38.9305 8.72246 38.9305C9.26546 38.9305 9.6921 38.5039 9.6921 37.9608C9.65332 37.4179 9.22667 36.9912 8.72246 36.9912ZM46.8489 31.0182C47.198 31.0182 47.5083 31.2897 47.5083 31.6775C47.5083 32.0266 47.2368 32.3369 46.8489 32.3369C46.4999 32.3369 46.1896 32.0654 46.1896 31.6775C46.2284 31.3285 46.4999 31.0182 46.8489 31.0182ZM27.9602 28.8462C27.4172 28.8462 26.9906 29.2728 26.9906 29.8158C26.9906 29.9322 26.9906 30.0098 27.0294 30.0873L18.1086 44.3605C17.6044 44.3605 17.1778 44.7872 17.1778 45.3302C17.1778 45.8732 17.6044 46.2998 18.1474 46.2998C18.6904 46.2998 19.1171 45.8732 19.1171 45.3302C19.1171 45.2138 19.0783 45.0974 19.0395 44.9811L27.8827 30.7855H27.9214C28.4644 30.7855 28.8911 30.3588 28.8911 29.8158V29.777L49.2537 15.7754C49.3312 15.8141 49.4088 15.8141 49.5252 15.8141C50.0682 15.8141 50.4948 15.3875 50.4948 14.8445C50.4948 14.3015 50.0682 13.8749 49.5252 13.8749C49.4476 13.8749 49.37 13.8748 49.2924 13.9136L38.7039 4.64382L49.6027 2.00638C49.7579 2.16153 49.9906 2.2391 50.2233 2.2391C50.7663 2.2391 51.193 1.81245 51.193 1.26945C51.193 0.726449 50.7663 0.299805 50.2233 0.299805C49.7967 0.299805 49.4476 0.571306 49.3312 0.920379L38.3161 3.5966C38.1609 3.48024 37.967 3.44146 37.7731 3.44146C37.2301 3.44146 36.8034 3.8681 36.8034 4.4111C36.8034 4.95411 37.2301 5.38075 37.7731 5.38075C37.8118 5.38075 37.8118 5.38075 37.8506 5.38075L48.5943 14.7669C48.5943 14.8057 48.5943 14.8445 48.5943 14.8833C48.5943 14.9221 48.5943 14.9221 48.5943 14.9609L28.2317 28.885C28.1542 28.8462 28.0766 28.8462 27.9602 28.8462ZM21.2891 12.5173C20.7461 12.5173 20.3194 12.944 20.3194 13.487C20.3194 14.03 20.7461 14.4566 21.2891 14.4566C21.8321 14.4566 22.2587 14.03 22.2587 13.487C22.2587 12.944 21.8321 12.5173 21.2891 12.5173ZM17.7208 8.2509C17.1778 8.2509 16.7511 8.67755 16.7511 9.22055C16.7511 9.76355 17.1778 10.1902 17.7208 10.1902C18.2638 10.1902 18.6904 9.76355 18.6904 9.22055C18.6516 8.67755 18.225 8.2509 17.7208 8.2509Z" fill="#FA4616"/>
</svg>
