<svg width="296" height="296" viewBox="0 0 296 296" fill="none" xmlns="http://www.w3.org/2000/svg">
<path fill-rule="evenodd" clip-rule="evenodd" d="M143.695 219.04L162.531 261.198L243.617 238.415C210.25 231.956 177.062 225.498 143.695 219.04ZM141.183 213.479L247.025 233.93L201.818 148.718L134.366 198.589L141.183 213.479ZM119.835 209.353L138.133 212.941L132.393 200.204L119.835 209.353ZM115.889 207.738L116.606 208.456L131.316 197.513L79.2921 81.0862L115.889 207.738ZM75.3455 75.8837L78.0364 169.707L112.121 203.971L75.3455 75.8837ZM69.7843 63.1468L27.0885 51.3068L11.84 86.6474L72.834 167.554L69.7843 63.1468ZM241.823 116.965L209.712 68.708L204.689 142.977L253.663 235.724L250.255 239.312L161.096 264.247L140.645 218.502L114.274 213.299C100.461 199.486 86.8267 185.673 73.0134 171.859V171.68L8.96973 86.8268C14.5309 73.9104 20.0921 60.994 25.6533 48.0777L69.7843 60.2765V59.7383C112.121 51.1274 154.279 42.6959 196.616 34.085L197.513 35.8789L209.712 63.8644L244.514 115.889L239.85 169.886L237.338 169.707L241.823 116.965ZM204.689 65.6583L193.566 40.1844L74.9867 64.0437V64.9407L133.469 196.078L200.742 146.386L199.486 144.053L204.689 65.6583Z" fill="#2F2A95"/>
<path d="M62.4289 233.033C60.8143 233.033 59.3792 234.289 59.3792 236.083C59.3792 237.697 60.6349 239.132 62.4289 239.132C64.0434 239.132 65.4786 237.876 65.4786 236.083C65.2992 234.289 64.0434 233.033 62.4289 233.033ZM221.372 35.5201C219.757 35.5201 218.322 36.7759 218.322 38.5698C218.322 40.1844 219.578 41.6195 221.372 41.6195C222.986 41.6195 224.422 40.3637 224.422 38.5698C224.422 36.7759 223.166 35.5201 221.372 35.5201ZM275.369 34.085C277.881 34.085 279.854 36.0583 279.854 38.5698C279.854 41.0813 277.881 43.0547 275.369 43.0547C272.858 43.0547 270.885 41.0813 270.885 38.5698C271.064 36.0583 273.037 34.085 275.369 34.085ZM33.9053 155.893C36.4168 155.893 38.3901 157.867 38.3901 160.378C38.3901 162.89 36.4168 164.863 33.9053 164.863C31.3937 164.863 29.4204 162.89 29.4204 160.378C29.4204 157.867 31.3937 155.893 33.9053 155.893ZM235.365 171.501L205.226 149.435C204.688 149.615 204.329 149.615 203.791 149.615C201.28 149.615 199.306 147.641 199.306 145.13C199.306 142.618 201.28 140.645 203.791 140.645C204.329 140.645 204.688 140.645 205.226 140.824L236.082 117.324L78.7537 67.0934L160.378 213.12L180.829 173.115L250.972 233.212C251.151 233.212 251.51 233.212 251.689 233.212C254.201 233.212 256.174 235.186 256.174 237.697C256.174 240.209 254.201 242.182 251.689 242.182C249.178 242.182 247.205 240.209 247.205 237.697C247.205 237.518 247.205 237.159 247.205 236.979L182.264 181.367L163.966 216.887C164.683 217.605 165.222 218.861 165.222 219.937C165.222 222.449 163.248 224.422 160.737 224.422C158.225 224.422 156.252 222.449 156.252 219.937C156.252 219.219 156.431 218.323 156.79 217.784L72.6544 67.2728C70.1428 67.2728 68.1695 65.2995 68.1695 62.788C68.1695 60.2765 70.1428 58.3031 72.6544 58.3031C74.6277 58.3031 76.2422 59.5589 76.7804 61.3528L238.235 113.198C238.952 112.66 239.849 112.301 240.926 112.301C243.437 112.301 245.411 114.274 245.411 116.786C245.411 119.297 243.437 121.27 240.926 121.27C240.388 121.27 240.029 121.27 239.491 121.091L207.738 145.309V145.489V145.668L237.517 167.554C239.132 167.554 240.567 168.81 240.567 170.604C240.567 172.218 239.311 173.653 237.517 173.653C236.8 173.115 235.903 172.577 235.365 171.501ZM259.942 93.6437C262.453 93.6437 264.426 95.6171 264.426 98.1286C264.426 100.64 262.453 102.613 259.942 102.613C257.43 102.613 255.457 100.64 255.457 98.1286C255.457 95.7965 257.43 93.6437 259.942 93.6437ZM285.057 189.619C283.442 189.619 282.007 190.875 282.007 192.669C282.007 194.284 283.263 195.719 285.057 195.719C286.671 195.719 288.106 194.463 288.106 192.669C288.106 190.875 286.671 189.619 285.057 189.619Z" fill="#44D62C"/>
</svg>
