<?xml version="1.0" encoding="UTF-8" standalone="no"?>
<svg
   xmlns:dc="http://purl.org/dc/elements/1.1/"
   xmlns:cc="http://creativecommons.org/ns#"
   xmlns:rdf="http://www.w3.org/1999/02/22-rdf-syntax-ns#"
   xmlns:svg="http://www.w3.org/2000/svg"
   xmlns="http://www.w3.org/2000/svg"
   xmlns:sodipodi="http://sodipodi.sourceforge.net/DTD/sodipodi-0.dtd"
   xmlns:inkscape="http://www.inkscape.org/namespaces/inkscape"
   width="296"
   height="296"
   viewBox="0 0 296 296"
   fill="none"
   version="1.1"
   id="svg476"
   sodipodi:docname="mt.svg"
   inkscape:version="0.92.4 (5da689c313, 2019-01-14)">
  <metadata
     id="metadata482">
    <rdf:RDF>
      <cc:Work
         rdf:about="">
        <dc:format>image/svg+xml</dc:format>
        <dc:type
           rdf:resource="http://purl.org/dc/dcmitype/StillImage" />
        <dc:title></dc:title>
      </cc:Work>
    </rdf:RDF>
  </metadata>
  <defs
     id="defs480" />
  <sodipodi:namedview
     pagecolor="#ffffff"
     bordercolor="#666666"
     borderopacity="1"
     objecttolerance="10"
     gridtolerance="10"
     guidetolerance="10"
     inkscape:pageopacity="0"
     inkscape:pageshadow="2"
     inkscape:window-width="1920"
     inkscape:window-height="1051"
     id="namedview478"
     showgrid="false"
     inkscape:zoom="1.5945946"
     inkscape:cx="243.38891"
     inkscape:cy="132.97548"
     inkscape:window-x="-9"
     inkscape:window-y="-9"
     inkscape:window-maximized="1"
     inkscape:current-layer="g470" />
  <g
     transform="matrix(1.3333333,0,0,-1.3333333,-43.636918,308.49192)"
     id="g470">
    <g
       id="g734"
       transform="matrix(1.3329244,0,0,1.3196126,-29.915166,-38.132058)">
      <g
         id="g697">
        <g
           id="g32"
           transform="translate(184.2974,97.0273)">
          <path
             d="M 0,0 10.917,8.188 11.105,4.424 Z M -3.953,-1.035 -12.329,41.787 6.964,47.245 18.729,16 Z M -37.175,-21.74 -79.902,0 -46.492,-9.882 -21.74,8.282 -33.034,36.14 -15.34,41.159 -6.933,-2.635 Z m 23.717,2.416 3.105,-15.968 -23.81,12.046 27.293,17.693 z m -33.881,-9.192 -58.758,-8.157 -10.509,15.215 25.41,25.6 52.515,-26.823 z M -121.688,34.571 -69.989,27.042 -91.949,6.4 Z m 31.245,23.121 1.13,-0.847 17.128,12.297 24.721,-23.089 -21.207,-17.756 -37.395,5.396 -16.124,2.07 z m -27.669,2.07 41.127,15.529 3.765,-3.388 -49.472,-35.136 z m 70.397,28.328 26.32,-18.634 -23.686,-21.552 -25.975,23.999 z m -18.761,-59.668 20.141,16.627 9.411,-8.407 z M -35.92,35.387 -24.877,9.16 -46.711,-6.525 -90.255,6.023 -68.483,26.54 Z m 20.454,7.153 -18.509,-5.082 -10.258,9.411 22.838,20.516 z M 20.422,15.812 7.874,48.939 l -20.297,-5.647 -6.431,26.352 -29.05,20.329 -23.905,-17.223 -4.768,4.172 -42.916,-16.062 -4.768,-25.473 31.089,-29.552 -27.325,-27.167 13.302,-18.195 60.734,8.407 10.416,7.027 25.41,-12.8 1.443,0.753 -2.761,16.941 7.279,15.434 17.944,7.53 -0.878,5.898 z"
             style="fill:#323596;fill-opacity:1;fill-rule:nonzero;stroke:none"
             id="path34"
             inkscape:connector-curvature="0" />
        </g>
      </g>
      <g
         transform="translate(139.0142,65.9092)"
         id="g36">
        <path
           inkscape:connector-curvature="0"
           id="path38"
           style="fill:#f03c21;fill-opacity:1;fill-rule:nonzero;stroke:none"
           d="m 0,0 c -0.623,-0.997 -1.936,-1.3 -2.933,-0.677 -0.997,0.623 -1.299,1.936 -0.676,2.933 0.622,0.996 1.935,1.3 2.932,0.677 C 0.32,2.31 0.623,0.996 0,0" />
      </g>
      <g
         transform="translate(210.4287,103.8672)"
         id="g40">
        <path
           inkscape:connector-curvature="0"
           id="path42"
           style="fill:#f03c21;fill-opacity:1;fill-rule:nonzero;stroke:none"
           d="m 0,0 c -1.143,0 -2.07,-0.928 -2.07,-2.071 0,-1.142 0.927,-2.069 2.07,-2.069 1.142,0 2.069,0.927 2.069,2.069 C 2.069,-0.928 1.142,0 0,0 m -31.197,55.671 c 1.715,0 3.104,-1.39 3.104,-3.106 0,-1.714 -1.389,-3.104 -3.104,-3.104 -1.715,0 -3.104,1.39 -3.104,3.104 0,1.716 1.389,3.106 3.104,3.106 M -147.528,5.872 c 1.715,0 3.104,-1.391 3.104,-3.105 0,-1.715 -1.389,-3.105 -3.104,-3.105 -1.715,0 -3.104,1.39 -3.104,3.105 0,1.714 1.389,3.105 3.104,3.105 m 128.894,-33.921 c -1.142,0 -2.069,-0.927 -2.069,-2.07 0,-1.143 0.927,-2.069 2.069,-2.069 1.143,0 2.07,0.926 2.07,2.069 0,1.143 -0.927,2.07 -2.07,2.07 M -159.74,44.67 c -1.142,0 -2.07,-0.927 -2.07,-2.068 0,-1.144 0.928,-2.069 2.07,-2.069 1.143,0 2.07,0.925 2.07,2.069 0,1.141 -0.927,2.068 -2.07,2.068" />
      </g>
      <g
         transform="translate(94.5444,157.0093)"
         id="g132">
        <path
           inkscape:connector-curvature="0"
           id="path134"
           style="fill:#f03c21;fill-opacity:1;fill-rule:nonzero;stroke:none"
           d="m 0,0 -19.199,-26.854 13.803,-17.191 2.761,-10.54 -13.552,-19.326 22.963,-23.214 18.823,11.544 16.564,-5.772 1.129,2.887 -18.069,6.65 -18.321,-11.545 -18.948,20.203 12.297,17.82 -2.51,12.171 -12.423,16.063 15.56,23.339 18.196,-5.772 13.803,6.149 5.898,17.191 28.861,-6.651 -0.502,-18.947 9.161,-10.667 19.575,-4.392 4.016,-27.731 -16.188,-7.028 -8.156,-17.568 2.76,-16.313 2.886,0.376 -2.258,15.937 7.153,15.183 17.065,7.405 -4.141,32.374 -21.207,4.769 -7.654,8.658 0.753,20.454 -34.257,8.031 -6.4,-18.822 -11.67,-5.02 z" />
      </g>
      <g
         transform="translate(79.8628,129.7793)"
         id="g136">
        <path
           inkscape:connector-curvature="0"
           id="path138"
           style="fill:#f03c21;fill-opacity:1;fill-rule:nonzero;stroke:none"
           d="m 0,0 c 0,-1.386 -1.124,-2.51 -2.51,-2.51 -1.386,0 -2.51,1.124 -2.51,2.51 0,1.386 1.124,2.509 2.51,2.509 C -1.124,2.509 0,1.386 0,0" />
      </g>
      <g
         transform="translate(97.3052,155.5034)"
         id="g140">
        <path
           inkscape:connector-curvature="0"
           id="path142"
           style="fill:#f03c21;fill-opacity:1;fill-rule:nonzero;stroke:none"
           d="m 0,0 c 0,-1.386 -1.124,-2.51 -2.51,-2.51 -1.386,0 -2.51,1.124 -2.51,2.51 0,1.386 1.124,2.51 2.51,2.51 C -1.124,2.51 0,1.386 0,0" />
      </g>
      <g
         transform="translate(128.5508,154.876)"
         id="g144">
        <path
           inkscape:connector-curvature="0"
           id="path146"
           style="fill:#f03c21;fill-opacity:1;fill-rule:nonzero;stroke:none"
           d="m 0,0 c 0,-1.386 -1.124,-2.51 -2.51,-2.51 -1.386,0 -2.51,1.124 -2.51,2.51 0,1.386 1.124,2.51 2.51,2.51 C -1.124,2.51 0,1.386 0,0" />
      </g>
      <g
         transform="translate(134.4487,173.0713)"
         id="g148">
        <path
           inkscape:connector-curvature="0"
           id="path150"
           style="fill:#f03c21;fill-opacity:1;fill-rule:nonzero;stroke:none"
           d="m 0,0 c 0,-1.248 -1.011,-2.259 -2.259,-2.259 -1.247,0 -2.259,1.011 -2.259,2.259 0,1.248 1.012,2.259 2.259,2.259 C -1.011,2.259 0,1.248 0,0" />
      </g>
      <g
         transform="translate(166.4473,165.6675)"
         id="g152">
        <path
           inkscape:connector-curvature="0"
           id="path154"
           style="fill:#f03c21;fill-opacity:1;fill-rule:nonzero;stroke:none"
           d="m 0,0 c 0,-1.316 -1.067,-2.384 -2.384,-2.384 -1.317,0 -2.385,1.068 -2.385,2.384 0,1.317 1.068,2.384 2.385,2.384 C -1.067,2.384 0,1.317 0,0" />
      </g>
      <g
         transform="translate(194.4302,131.9121)"
         id="g156">
        <path
           inkscape:connector-curvature="0"
           id="path158"
           style="fill:#f03c21;fill-opacity:1;fill-rule:nonzero;stroke:none"
           d="m 0,0 c 0,-1.247 -1.011,-2.258 -2.259,-2.258 -1.247,0 -2.259,1.011 -2.259,2.258 0,1.248 1.012,2.259 2.259,2.259 C -1.011,2.259 0,1.248 0,0" />
      </g>
      <g
         transform="translate(198.2427,100.292)"
         id="g160">
        <path
           inkscape:connector-curvature="0"
           id="path162"
           style="fill:#f03c21;fill-opacity:1;fill-rule:nonzero;stroke:none"
           d="m 0,0 c -0.623,-0.997 -1.936,-1.3 -2.933,-0.677 -0.996,0.623 -1.299,1.936 -0.676,2.933 0.623,0.996 1.936,1.3 2.932,0.677 C 0.32,2.31 0.623,0.996 0,0" />
      </g>
      <g
         transform="translate(82.0439,82.2217)"
         id="g164">
        <path
           inkscape:connector-curvature="0"
           id="path166"
           style="fill:#f03c21;fill-opacity:1;fill-rule:nonzero;stroke:none"
           d="m 0,0 c -0.623,-0.996 -1.936,-1.3 -2.933,-0.677 -0.996,0.623 -1.299,1.937 -0.676,2.933 0.623,0.997 1.936,1.3 2.932,0.677 C 0.32,2.31 0.623,0.997 0,0" />
      </g>
      <g
         transform="translate(117.9951,123.6318)"
         id="g168">
        <path
           inkscape:connector-curvature="0"
           id="path170"
           style="fill:#f03c21;fill-opacity:1;fill-rule:nonzero;stroke:none"
           d="m 0,0 c -0.623,-0.997 -1.936,-1.3 -2.933,-0.677 -0.996,0.623 -1.299,1.936 -0.676,2.933 0.623,0.996 1.936,1.3 2.932,0.677 C 0.32,2.31 0.623,0.997 0,0" />
      </g>
      <g
         transform="translate(176.2827,59.8857)"
         id="g172">
        <path
           inkscape:connector-curvature="0"
           id="path174"
           style="fill:#f03c21;fill-opacity:1;fill-rule:nonzero;stroke:none"
           d="m 0,0 c -0.623,-0.997 -1.936,-1.3 -2.933,-0.677 -0.996,0.623 -1.299,1.936 -0.676,2.933 0.623,0.997 1.936,1.3 2.932,0.677 C 0.32,2.31 0.623,0.997 0,0" />
      </g>
      <g
         transform="translate(182.2583,93.7646)"
         id="g176">
        <path
           inkscape:connector-curvature="0"
           id="path178"
           style="fill:#f03c21;fill-opacity:1;fill-rule:nonzero;stroke:none"
           d="m 0,0 c 0,-1.594 -1.292,-2.886 -2.886,-2.886 -1.594,0 -2.886,1.292 -2.886,2.886 0,1.595 1.292,2.887 2.886,2.887 C -1.292,2.887 0,1.595 0,0" />
      </g>
      <g
         transform="translate(104.458,62.5195)"
         id="g180">
        <path
           inkscape:connector-curvature="0"
           id="path182"
           style="fill:#f03c21;fill-opacity:1;fill-rule:nonzero;stroke:none"
           d="m 0,0 c 0,-1.594 -1.292,-2.887 -2.886,-2.887 -1.594,0 -2.886,1.293 -2.886,2.887 0,1.594 1.292,2.886 2.886,2.886 C -1.292,2.886 0,1.594 0,0" />
      </g>
      <g
         transform="translate(95.7993,102.5488)"
         id="g184">
        <path
           inkscape:connector-curvature="0"
           id="path186"
           style="fill:#f03c21;fill-opacity:1;fill-rule:nonzero;stroke:none"
           d="m 0,0 c 0,-1.594 -1.292,-2.886 -2.886,-2.886 -1.594,0 -2.886,1.292 -2.886,2.886 0,1.594 1.292,2.887 2.886,2.887 C -1.292,2.887 0,1.594 0,0" />
      </g>
    </g>
  </g>
</svg>
