<?xml version="1.0" encoding="UTF-8" standalone="no"?>
<svg
   xmlns:dc="http://purl.org/dc/elements/1.1/"
   xmlns:cc="http://creativecommons.org/ns#"
   xmlns:rdf="http://www.w3.org/1999/02/22-rdf-syntax-ns#"
   xmlns:svg="http://www.w3.org/2000/svg"
   xmlns="http://www.w3.org/2000/svg"
   xmlns:sodipodi="http://sodipodi.sourceforge.net/DTD/sodipodi-0.dtd"
   xmlns:inkscape="http://www.inkscape.org/namespaces/inkscape"
   width="296"
   height="296"
   viewBox="0 0 296 296"
   fill="none"
   version="1.1"
   id="svg6"
   sodipodi:docname="nr.svg"
   inkscape:version="0.92.4 (5da689c313, 2019-01-14)">
  <metadata
     id="metadata12">
    <rdf:RDF>
      <cc:Work
         rdf:about="">
        <dc:format>image/svg+xml</dc:format>
        <dc:type
           rdf:resource="http://purl.org/dc/dcmitype/StillImage" />
        <dc:title></dc:title>
      </cc:Work>
    </rdf:RDF>
  </metadata>
  <defs
     id="defs10">
    <clipPath
       id="clipPath30"
       clipPathUnits="userSpaceOnUse">
      <path
         inkscape:connector-curvature="0"
         id="path28"
         d="M 0,238.11 H 524.409 V 0 H 0 Z" />
    </clipPath>
  </defs>
  <sodipodi:namedview
     pagecolor="#ffffff"
     bordercolor="#666666"
     borderopacity="1"
     objecttolerance="10"
     gridtolerance="10"
     guidetolerance="10"
     inkscape:pageopacity="0"
     inkscape:pageshadow="2"
     inkscape:window-width="1920"
     inkscape:window-height="1051"
     id="namedview8"
     showgrid="false"
     inkscape:zoom="1.5945946"
     inkscape:cx="351.73368"
     inkscape:cy="185.3967"
     inkscape:window-x="-9"
     inkscape:window-y="-9"
     inkscape:window-maximized="1"
     inkscape:current-layer="g26" />
  <g
     transform="matrix(1.3333333,0,0,-1.3333333,-43.340315,299.80076)"
     inkscape:label="AKK_neuro_hor_rgb"
     id="g22">
    <g
       id="g24">
      <g
         clip-path="url(#clipPath30)"
         id="g26">
        <g
           transform="matrix(1.1817027,0,0,1.2188226,-25.349064,-29.292899)"
           id="g199">
          <g
             id="g69"
             transform="translate(270.8447,110.1621)">
            <path
               inkscape:connector-curvature="0"
               d="m 117.20312,63.173828 c -15.74799,14.796 -31.495704,29.597641 -47.23437,44.404292 l 11.234375,42.24219 2.1875,-0.57422 0.5,1.01368 69.039065,-34.01172 c -18.444,21.00133 -37.31873,41.75764 -55.664065,62.82031 -2.984,18.36933 -5.953688,36.74261 -8.929687,55.11328 l 21.433592,28.04102 108.89258,-20.87305 -0.81445,-4.44727 -106.16993,20.36719 -18.568355,-24.29297 8.328125,-51.39453 97.64844,16.82813 -21.80274,-42.94336 -16.54101,-40.73828 77.08984,25.61914 40.78711,47.13672 1.70898,-1.47852 -41.1914,-47.60547 -73.16797,-24.31445 45.90234,-5.375 -15.4082,-33.464846 z m 1.48633,4.810547 0.21094,0.0332 15.78906,17.455078 21.75391,26.521487 -71.281251,35.11719 -10.126953,-38.08594 z m 3.74414,0.572266 70.94141,10.802734 11.75586,25.533205 -47.04297,5.54492 -21.66211,-26.419922 z m 36.49024,47.712889 16.27344,40.07813 19.83007,39.0664 -92.13281,-15.8789 z"
               style="fill:#2f2a95;fill-opacity:1;fill-rule:evenodd;stroke:none;stroke-width:1.33333325"
               transform="matrix(0.75000002,0,0,-0.75000002,-270.8447,127.94791)"
               id="path71" />
          </g>
          <path
             d="m 64.828127,191.90151 c -1.644,0 -2.976563,-1.33256 -2.976563,-2.97656 0,-1.644 1.332563,-2.97656 2.976563,-2.97656 1.644,0 2.976562,1.33256 2.976562,2.97656 0,1.644 -1.332562,2.97656 -2.976562,2.97656 z m 119.277833,-1.81494 c -1.095,0 -1.9834,-0.88886 -1.9834,-1.98486 0,-1.096 0.8884,-1.9834 1.9834,-1.9834 1.097,0 1.98486,0.8874 1.98486,1.9834 0,1.096 -0.88786,1.98486 -1.98486,1.98486 z m -37.43701,-7.18506 c -1.114,0 -2.08424,-0.61211 -2.59424,-1.51611 -14.332,-1.726 -28.66316,-3.45287 -42.99316,-5.19287 l -0.66651,-0.42774 c -0.099,-0.053 -0.19325,-0.11364 -0.28125,-0.18164 -8.952995,-5.753 -17.900653,-11.51436 -26.847655,-17.27637 -3.815,-9.74899 -7.62943,-19.49899 -11.44043,-29.25 -1.301003,-0.313 -2.267578,-1.48435 -2.267578,-2.88134 0,-1.508 1.124589,-2.75095 2.579589,-2.93995 l 9.927247,-19.13232 c -0.243,-0.429 -0.382324,-0.92559 -0.382324,-1.45459 0,-1.637 1.328843,-2.964844 2.964844,-2.964844 0.471997,0 0.917962,0.11115 1.313962,0.30615 10.238002,-7.092 20.481173,-14.178135 30.722165,-21.265133 l 38.59425,9.351563 c 0.52899,-0.769005 1.40866,-1.278923 2.40966,-1.29492 l 14.91211,-29.938478 8.354,-2.0625 c 0.54401,-0.709005 1.3998,-1.166018 2.3628,-1.166018 1.644,0 2.9751,1.333028 2.9751,2.978025 0,1.644 -1.3311,2.976563 -2.9751,2.976563 -1.01,0 -1.9029,-0.503948 -2.44189,-1.272945 l -5.9297,1.463377 -14.42284,28.958499 c 0.12,0.324 0.1875,0.674505 0.1875,1.041502 0,1.643003 -1.33357,2.9751 -2.97656,2.9751 -0.95301,0 -1.80022,-0.447585 -2.34522,-1.14258 L 107.3833,82.376608 77.611817,102.98696 c -0.15,1.321 -1.167262,2.37692 -2.468257,2.58692 l -9.97559,19.2246 c 0.216,0.411 0.339844,0.87996 0.339844,1.37696 0,0.60799 -0.184047,1.17502 -0.498046,1.64502 l 10.650879,27.23438 c 0.654998,0.249 1.142048,0.83587 1.248045,1.54687 l 24.062998,15.4834 c 0.11799,-0.023 0.23974,-0.0337 0.36474,-0.0337 0.716,0 1.3415,0.38214 1.6875,0.95214 l 41.37597,4.99659 c 0.546,-0.643 1.35905,-1.05176 2.26905,-1.05176 0.474,0 0.92329,0.11108 1.32129,0.30908 l 35.65137,-15.88769 c 0.224,-0.492 0.64608,-0.8753 1.16308,-1.0503 l 18.94776,-27.99316 -44.43457,26.13427 c -0.21801,1.43001 -1.45141,2.52393 -2.94141,2.52393 -1.644,0 -2.97657,-1.3311 -2.97657,-2.9751 0,-1.644 1.33257,-2.97802 2.97657,-2.97802 0.23,0 0.45443,0.0272 0.66943,0.0762 l 18.52588,-20.0171 -40.55127,-11.98974 c -0.527,0.473 -1.22186,0.75879 -1.98486,0.75879 -1.373,0 -2.52956,-0.9298 -2.87256,-2.1958 l -0.55664,-0.16407 0.47022,-0.29004 c -0.012,-0.10699 -0.0175,-0.21565 -0.0175,-0.32665 0,-1.64201 1.33356,-2.97364 2.97656,-2.97364 0.603,0 1.16284,0.17833 1.63183,0.48633 l 59.66017,-36.580079 0.16698,0.483397 0.22119,-0.260737 14.26173,12.97851 c 0.20199,-0.04297 0.41195,-0.06735 0.62695,-0.06735 1.644,0 2.97656,1.33056 2.97656,2.976563 0,0.867 -0.3714,1.647405 -0.9624,2.191406 l -1.09424,28.23926 c -7.712,10.966 -15.56625,22.65143 -23.15625,34.21142 -0.155,0.79402 -0.78843,1.4176 -1.58643,1.5586 -12.05,5.374 -24.10034,10.74428 -36.15234,16.11328 -0.157,1.496 -1.42345,2.66162 -2.96045,2.66162 z m 71.0918,-17.73779 c -1.644,0 -2.9751,-1.33403 -2.9751,-2.97803 0,-1.643 1.3311,-2.9751 2.9751,-2.9751 1.644,0 2.97803,1.3321 2.97803,2.9751 0,1.644 -1.33403,2.97803 -2.97803,2.97803 z m -52.13087,-14.34815 40.771,-23.97949 -12.85107,-36.936034 -13.36524,45.190424 z m 11.89161,-18.68554 13.01514,-44.011234 -52.65821,32.288084 z m 29.94873,-12.53613 0.73828,-19.03858 c -0.94,-0.501 -1.5791,-1.491399 -1.5791,-2.629396 0,-0.125003 0.007,-0.247673 0.022,-0.367673 l -10.04737,-9.194827 c 3.621,10.41 7.24321,20.820476 10.86621,31.230476 z m -74.55615,-17.55762 c -1.095,0 -1.98486,-0.88887 -1.98486,-1.98486 0,-1.096039 0.88986,-1.983409 1.98486,-1.983409 1.09599,0 1.98486,0.88737 1.98486,1.983409 0,1.09599 -0.88887,1.98486 -1.98486,1.98486 z M 55.19092,94.420551 c -1.096001,0 -1.986329,-0.888862 -1.986329,-1.98486 0,-1.096005 0.890328,-1.981935 1.986329,-1.981935 1.095,0 1.983398,0.88593 1.983398,1.981935 0,1.095998 -0.888398,1.98486 -1.983398,1.98486 z M 227.66163,77.441548 c -1.097,0 -1.9834,-0.886395 -1.9834,-1.983397 0,-1.095998 0.8864,-1.983398 1.9834,-1.983398 1.095,0 1.98486,0.8874 1.98486,1.983398 0,1.097002 -0.88986,1.983397 -1.98486,1.983397 z m 62.77734,-0.12744 c 0.25039,-0.575617 0.21101,-0.471727 0.0586,-0.04103 -0.0202,0.01462 -0.0385,0.02648 -0.0586,0.04103 z M 132.55518,63.38051 c -1.096,0 -1.9834,-0.887857 -1.9834,-1.98486 0,-1.094002 0.8874,-1.981935 1.9834,-1.981935 1.096,0 1.9834,0.887933 1.9834,1.981935 0,1.097003 -0.8874,1.98486 -1.9834,1.98486 z"
             style="fill:#1eddc3;fill-opacity:1;fill-rule:nonzero;stroke:none;stroke-width:0.99999994"
             id="path75"
             inkscape:connector-curvature="0" />
        </g>
      </g>
    </g>
  </g>
</svg>
