<svg width="296" height="296" viewBox="0 0 296 296" fill="none" xmlns="http://www.w3.org/2000/svg">
<path fill-rule="evenodd" clip-rule="evenodd" d="M5.38184 188.543L27.9855 102.254L22.783 40.543C47.5394 51.3066 72.4752 61.8909 97.2315 72.6545L98.3079 73.5515C137.236 72.6545 176.165 71.7575 215.273 70.6812H215.452H215.99L216.349 71.2193C216.349 71.2193 216.349 71.2193 216.349 71.3987L248.819 115.171C229.445 123.961 210.07 132.751 190.875 141.542L276.805 184.238L205.765 263.171C188.184 245.052 170.783 227.113 153.202 208.994L152.844 178.676H157.867L158.046 199.307L181.905 145.309L96.514 184.058L116.068 208.097L114.095 209.711L94.72 184.955C73.5515 194.463 52.5624 204.15 31.394 213.658C22.6037 205.585 13.9927 197.333 5.38184 189.261V188.543ZM158.584 205.227V206.662L205.944 255.457L268.732 185.493L185.314 144.053L158.584 205.227ZM185.314 138.492L211.864 78.3951L190.875 105.125C190.696 105.304 190.696 105.304 190.516 105.484L161.096 121.988L177.062 134.366L185.314 138.492ZM156.252 124.679L108.354 151.588L107.098 149.435L154.099 123.064L142.08 113.736L92.5673 123.064L72.4752 153.382L95.4376 182.085L182.085 142.798L174.55 139.03L174.192 138.851L156.252 124.679ZM158.943 120.194L185.493 105.304L148.718 112.301L158.943 120.194ZM189.799 102.434L212.761 73.1927L101.537 75.8836L145.847 110.327L189.619 102.075L189.799 102.434ZM215.811 74.269L187.287 139.389L188.005 139.748L245.052 113.915L215.811 74.269ZM31.2146 210.25L69.0667 153.382L29.9588 104.587L7.89334 188.543L31.2146 210.25ZM70.6812 151.05L89.1588 123.602L34.4436 105.842L70.6812 151.05ZM92.2085 120.373L139.21 111.404L94.72 76.7806L94.1818 76.6011L36.5964 101.178L92.5673 119.118L92.2085 120.373ZM70.8606 155.355L34.9818 209.173L92.9261 182.982L70.8606 155.355ZM33.0085 100.102L90.9527 75.3454L28.5236 48.4363L33.0085 100.102Z" fill="#2F2A95"/>
<path d="M155.714 203.074C158.226 203.074 160.199 205.047 160.199 207.559C160.199 207.738 160.199 208.097 160.199 208.276L160.737 208.635L160.02 208.994C159.481 210.788 157.687 212.044 155.714 212.044C154.996 212.044 154.458 211.864 153.92 211.685L130.778 221.91C130.24 223.704 128.446 225.139 126.473 225.139C123.961 225.139 121.988 223.166 121.988 220.655C121.988 220.116 122.167 219.399 122.347 219.04L113.377 209.532L111.583 174.909L106.022 154.996C104.228 154.458 102.972 152.664 102.972 150.691C102.972 149.973 103.152 149.256 103.51 148.718L88.2619 122.526C89.6971 107.457 91.1322 92.5674 92.5674 77.4983C91.8498 76.7807 91.3116 75.7044 91.3116 74.4486C91.3116 71.9371 93.285 69.9637 95.7965 69.9637C96.3347 69.9637 96.8728 70.1431 97.2316 70.1431C107.816 63.5056 118.4 56.868 128.984 50.2304C141.901 52.7419 154.817 55.4328 167.733 57.9444C168.451 57.2268 169.707 56.6886 170.783 56.6886C173.295 56.6886 175.268 58.6619 175.268 61.1734C175.268 62.0704 175.089 62.788 174.55 63.5056L192.31 102.972C181.367 128.626 170.604 151.947 158.764 176.883C158.764 177.241 158.943 177.6 158.943 177.959C158.943 180.47 156.97 182.444 154.458 182.444C152.126 182.444 150.153 180.47 149.973 178.138L113.018 156.97L113.556 158.046C118.4 167.375 126.114 181.906 128.087 186.032C128.446 186.032 128.626 186.032 128.984 186.032C131.316 186.032 133.29 187.826 133.469 190.158C140.107 194.643 146.744 199.307 153.382 203.792C154.279 203.433 154.996 203.074 155.714 203.074ZM100.281 74.4486C100.281 76.4219 99.205 77.8571 97.5904 78.5747L93.4644 121.27L107.995 146.206C110.148 146.386 111.763 148.179 111.942 150.153L153.023 173.653C153.561 173.474 154.1 173.295 154.638 173.295C154.817 173.295 154.817 173.295 154.996 173.295L173.115 134.904L186.929 102.793L170.066 65.2995C168.63 64.9407 167.375 64.0437 166.836 62.788L130.061 55.4328L100.281 74.4486ZM129.164 217.067L150.332 207.738L131.137 194.463C130.599 194.643 129.881 194.822 129.343 194.822C126.832 194.822 124.858 192.849 124.858 190.337C124.858 189.62 125.038 188.902 125.396 188.364C123.244 184.955 120.015 179.573 116.965 174.012L118.759 207.38L127.011 216.17C127.729 216.349 128.626 216.529 129.164 217.067ZM12.0195 118.579C14.531 118.579 16.5044 120.553 16.5044 123.064C16.5044 125.576 14.531 127.549 12.0195 127.549C9.508 127.549 7.53467 125.576 7.53467 123.064C7.53467 120.553 9.508 118.579 12.0195 118.579ZM61.3528 182.085C59.7383 182.085 58.3032 183.341 58.3032 185.135C58.3032 186.749 59.5589 188.184 61.3528 188.184C62.9674 188.184 64.4025 186.929 64.4025 185.135C64.2231 183.52 62.9674 182.085 61.3528 182.085ZM59.5589 236.262C62.0704 236.262 64.0438 238.235 64.0438 240.747C64.0438 243.258 62.0704 245.232 59.5589 245.232C57.0474 245.232 55.0741 243.258 55.0741 240.747C55.0741 238.235 57.0474 236.262 59.5589 236.262ZM210.788 220.655C213.299 220.655 215.273 222.628 215.273 225.139C215.273 227.651 213.299 229.624 210.788 229.624C208.276 229.624 206.303 227.651 206.303 225.139C206.303 222.628 208.276 220.655 210.788 220.655ZM289.542 135.801C287.927 135.801 286.492 137.057 286.492 138.851C286.492 140.466 287.748 141.901 289.542 141.901C291.156 141.901 292.592 140.645 292.592 138.851C292.412 137.057 291.156 135.801 289.542 135.801ZM207.559 34.085C210.07 34.085 212.044 36.0583 212.044 38.5698C212.044 41.0813 210.07 43.0547 207.559 43.0547C205.047 43.0547 203.074 41.0813 203.074 38.5698C203.074 36.0583 205.047 34.085 207.559 34.085Z" fill="#A64AC9"/>
</svg>
