<svg width="296" height="296" viewBox="0 0 296 296" fill="none" xmlns="http://www.w3.org/2000/svg">
<path fill-rule="evenodd" clip-rule="evenodd" d="M119.118 131.675L206.303 160.199L187.287 140.107L161.634 47.0011L101.896 93.823L119.118 131.675ZM215.632 168.63L120.553 137.595L131.855 224.242L181.726 185.852L181.906 185.673L215.632 168.63ZM180.65 96.8727L191.952 137.595L219.399 166.836L283.981 128.267L221.552 120.911L180.65 96.8727ZM165.76 42.8751L179.753 93.4642L222.449 118.4L285.954 125.934L165.76 42.8751ZM99.9225 89.5175C119.476 73.9102 139.21 58.1236 159.302 42.3369L85.9297 58.6618L99.9225 89.5175ZM58.6619 217.605L69.7843 258.327L85.7503 246.487L115.53 193.566L77.6776 193.387L15.4279 167.554L58.6619 217.605ZM69.9637 261.377L103.51 259.045L103.69 261.556L66.3758 264.247L54.3564 219.937L7.17578 165.401L98.3079 91.1321L82.7006 56.8678L164.504 38.749L291.515 126.473H291.874L291.695 126.652L218.502 216.708L216.529 215.093L285.595 130.061L221.193 168.63L219.219 169.707L183.341 188.005L130.061 228.907L117.862 134.725L100.102 95.4375L86.6473 105.842L15.6073 164.684L78.3952 190.696L120.015 190.875L87.9031 247.743C81.8037 252.407 75.8837 256.892 69.9637 261.377Z" fill="#2F2A95"/>
<path fill-rule="evenodd" clip-rule="evenodd" d="M243.438 72.4753C245.949 72.4753 247.923 74.4486 247.923 76.9601C247.923 79.4716 245.949 81.445 243.438 81.445C240.926 81.445 238.953 79.4716 238.953 76.9601C238.953 74.628 240.926 72.4753 243.438 72.4753ZM59.5589 87.0062C62.0704 87.0062 64.0438 88.9795 64.0438 91.491C64.0438 94.0025 62.0704 95.9759 59.5589 95.9759C57.0474 95.9759 55.0741 94.0025 55.0741 91.491C55.0741 88.9795 57.0474 87.0062 59.5589 87.0062ZM94.0026 34.085C92.388 34.085 90.9529 35.3407 90.9529 37.1347C90.9529 38.7492 92.2086 40.1844 94.0026 40.1844C95.6171 40.1844 97.0523 38.9286 97.0523 37.1347C96.8729 35.3407 95.6171 34.085 94.0026 34.085ZM16.8632 226.575C15.2486 226.575 13.8135 227.83 13.8135 229.624C13.8135 231.239 15.0692 232.674 16.8632 232.674C18.4777 232.674 19.9129 231.418 19.9129 229.624C19.9129 227.83 18.4777 226.575 16.8632 226.575ZM121.45 138.313L120.373 189.081C121.27 189.978 121.809 191.055 121.809 192.31C121.809 194.822 119.835 196.795 117.324 196.795C114.812 196.795 112.839 194.822 112.839 192.31C112.839 190.516 113.915 189.081 115.35 188.364L116.427 137.595C115.53 136.878 115.171 135.622 115.171 134.366C115.171 131.855 117.144 129.881 119.656 129.881C120.912 129.881 122.167 130.419 122.885 131.316L162.352 124.679H162.531L172.756 97.411C172.577 97.2316 172.398 96.8728 172.218 96.6934L87.5444 106.74L82.8801 188.902C84.3153 190.158 84.8535 192.131 83.9565 194.284C83.5977 195.181 82.8801 195.898 81.9832 196.257C81.0862 196.616 80.3686 196.795 79.651 196.795L61.891 217.426C61.891 217.784 62.0704 218.143 62.0704 218.323C62.0704 220.834 60.0971 222.807 57.5856 222.807C55.0741 222.807 53.1007 220.834 53.1007 218.323C53.1007 215.811 55.0741 213.838 57.5856 213.838C57.765 213.838 57.9444 213.838 58.1238 213.838L75.525 193.566C75.3456 193.207 75.3456 192.669 75.3456 192.31C75.3456 190.696 76.2425 189.261 77.6777 188.364L82.5213 105.484C82.3419 105.125 82.1626 104.587 82.1626 104.049C82.1626 103.331 82.3419 102.793 82.7007 102.255V102.075H82.8801C83.4183 101.358 84.3153 100.999 85.2122 100.999C85.9298 100.999 86.468 101.178 87.0062 101.537L172.936 91.3116C173.833 90.4147 174.909 89.8765 176.165 89.8765C178.676 89.8765 180.65 91.8498 180.65 94.3613C180.65 96.3346 179.394 97.9492 177.78 98.4874L167.016 126.473C167.016 126.652 167.016 126.832 167.016 127.011C167.016 128.626 165.76 130.061 163.966 130.061C163.607 130.061 163.249 130.061 162.89 129.881L123.423 136.34C123.064 137.236 122.347 137.954 121.45 138.313ZM254.919 243.079C253.304 243.079 251.869 244.335 251.869 246.129C251.869 247.743 253.125 249.178 254.919 249.178C256.533 249.178 257.969 247.923 257.969 246.129C257.969 244.514 256.713 243.079 254.919 243.079ZM219.22 211.506C220.296 212.403 221.013 213.658 221.013 215.093C221.013 217.605 219.04 219.578 216.529 219.578C215.632 219.578 214.735 219.219 213.838 218.681L134.904 227.292C134.187 228.907 132.572 230.163 130.778 230.163C130.599 230.163 130.24 230.163 130.061 230.163L107.098 259.942C107.098 261.915 105.663 263.709 103.869 264.247L103.51 264.606L103.152 264.427C102.972 264.427 102.793 264.427 102.613 264.427C100.281 264.427 98.308 262.633 98.1286 260.301L85.3916 249.896C83.9565 249.716 83.0595 248.461 83.0595 247.026C83.0595 245.411 84.3153 243.976 86.1092 243.976C87.365 243.976 88.6207 244.873 88.9795 246.129L100.82 255.995C101.358 255.816 101.896 255.636 102.613 255.636C103.152 255.636 103.51 255.636 104.049 255.816L126.473 226.754C126.473 226.575 126.473 226.216 126.473 225.857C126.473 223.346 128.446 221.372 130.958 221.372C132.034 221.372 133.11 221.731 133.828 222.449L212.403 213.838C212.761 212.761 213.299 212.044 214.196 211.506L216.887 171.68C215.811 170.783 215.093 169.527 215.093 168.092C215.093 166.478 215.99 165.043 217.426 164.146L220.117 124.32C219.758 124.141 219.578 123.961 219.22 123.782L191.593 139.748C191.413 140.466 191.055 141.183 190.337 141.721L185.493 182.803C186.39 183.699 186.929 184.776 186.929 186.211C186.929 188.723 184.955 190.696 182.444 190.696C179.932 190.696 177.959 188.723 177.959 186.211C177.959 184.596 178.856 182.982 180.291 182.264L185.493 137.416L217.605 118.938C218.323 117.324 219.937 116.247 221.731 116.247C224.243 116.247 226.216 118.221 226.216 120.732C226.216 121.988 225.678 123.064 224.96 123.782C224.063 137.416 223.166 151.229 222.09 164.863C222.987 165.76 223.704 166.836 223.704 168.272C223.704 169.886 222.807 171.321 221.552 172.039L219.22 211.506ZM163.787 239.67C166.298 239.67 168.272 241.644 168.272 244.155C168.272 246.667 166.298 248.64 163.787 248.64C161.275 248.64 159.302 246.667 159.302 244.155C159.481 241.644 161.455 239.67 163.787 239.67Z" fill="#FFCD00"/>
</svg>
